<svg width="414" height="896" xmlns="http://www.w3.org/2000/svg">
 <title>Inline Data</title>

 <g>
  <title>Layer 1</title>
  <path id="svg_21" d="m-0.2675,46.30143l16.75,-33.5l44.66667,0l16.75,33.5l-16.75,33.5l-44.66667,0l-16.75,-33.5z" stroke-width="0.5" stroke="#ffffff" fill="none"/>
  <path id="svg_26" d="m60.7325,80.30143l16.75,-33.50001l44.66667,0l16.75,33.50001l-16.75,33.5l-44.66667,0l-16.75,-33.5z" stroke-width="0.5" stroke="#ffffff" fill="none"/>
  <path id="svg_28" d="m61.7325,13.30143l16.75,-33.50001l44.66667,0l16.75,33.50001l-16.75,33.5l-44.66667,0l-16.75,-33.5z" stroke-width="0.5" stroke="#ffffff" fill="none"/>
  <path id="svg_29" d="m122.7325,47.30143l16.75,-33.50001l44.66667,0l16.75,33.50001l-16.75,33.5l-44.66667,0l-16.75,-33.5z" stroke-width="0.5" stroke="#ffffff" fill="none"/>
  <path id="svg_30" d="m183.7325,80.30143l16.75,-33.50001l44.66667,0l16.75,33.50001l-16.75,33.5l-44.66667,0l-16.75,-33.5z" stroke-width="0.5" stroke="#ffffff" fill="none"/>
  <path id="svg_31" d="m244.7325,114.30143l16.75,-33.50001l44.66667,0l16.75,33.50001l-16.75,33.5l-44.66667,0l-16.75,-33.5z" stroke-width="0.5" stroke="#ffffff" fill="none"/>
  <path id="svg_32" d="m245.7325,47.30143l16.75,-33.50001l44.66667,0l16.75,33.50001l-16.75,33.5l-44.66667,0l-16.75,-33.5z" stroke-width="0.5" stroke="#ffffff" fill="none"/>
  <path id="svg_33" d="m306.7325,81.30143l16.75,-33.50001l44.66667,0l16.75,33.50001l-16.75,33.5l-44.66667,0l-16.75,-33.5z" stroke-width="0.5" stroke="#ffffff" fill="none"/>
  <path id="svg_35" d="m367.7325,115.30143l16.75,-33.50001l44.66667,0l16.75,33.50001l-16.75,33.5l-44.66667,0l-16.75,-33.5z" stroke-width="0.5" stroke="#ffffff" fill="none"/>
  <path id="svg_36" d="m368.7325,48.30143l16.75,-33.50001l44.66667,0l16.75,33.50001l-16.75,33.5l-44.66667,0l-16.75,-33.5z" stroke-width="0.5" stroke="#ffffff" fill="none"/>
  <path id="svg_37" d="m-0.2675,113.30143l16.75,-33.50001l44.66667,0l16.75,33.50001l-16.75,33.5l-44.66667,0l-16.75,-33.5z" stroke-width="0.5" stroke="#ffffff" fill="none"/>
  <path id="svg_38" d="m121.7325,114.30143l16.75,-33.50001l44.66667,0l16.75,33.50001l-16.75,33.5l-44.66667,0l-16.75,-33.5z" stroke-width="0.5" stroke="#ffffff" fill="none"/>
  <path id="svg_39" d="m-1.2675,181.30143l16.75,-33.50001l44.66667,0l16.75,33.50001l-16.75,33.5l-44.66667,0l-16.75,-33.5z" stroke-width="0.5" stroke="#ffffff" fill="none"/>
  <path id="svg_40" d="m59.7325,215.30143l16.75,-33.50001l44.66667,0l16.75,33.50001l-16.75,33.5l-44.66667,0l-16.75,-33.5z" stroke-width="0.5" stroke="#007fff" fill="none"/>
  <path id="svg_41" d="m60.7325,148.30143l16.75,-33.50001l44.66667,0l16.75,33.50001l-16.75,33.5l-44.66667,0l-16.75,-33.5z" stroke-width="0.5" stroke="#ffffff" fill="none"/>
  <path id="svg_42" d="m121.7325,182.30143l16.75,-33.50001l44.66667,0l16.75,33.50001l-16.75,33.5l-44.66667,0l-16.75,-33.5z" stroke-width="0.5" stroke="#ffffff" fill="none"/>
  <path id="svg_43" d="m182.7325,215.30143l16.75,-33.50001l44.66667,0l16.75,33.50001l-16.75,33.5l-44.66667,0l-16.75,-33.5z" stroke-width="0.5" stroke="#007fff" fill="none"/>
  <path id="svg_44" d="m243.7325,249.30143l16.75,-33.50001l44.66667,0l16.75,33.50001l-16.75,33.5l-44.66667,0l-16.75,-33.5z" stroke-width="0.5" stroke="#007fff" fill="none"/>
  <path id="svg_45" d="m244.7325,182.30143l16.75,-33.50001l44.66667,0l16.75,33.50001l-16.75,33.5l-44.66667,0l-16.75,-33.5z" stroke-width="0.5" stroke="#ffffff" fill="none"/>
  <path id="svg_46" d="m305.7325,216.30143l16.75,-33.50001l44.66667,0l16.75,33.50001l-16.75,33.5l-44.66667,0l-16.75,-33.5z" stroke-width="0.5" stroke="#007fff" fill="none"/>
  <path id="svg_47" d="m366.7325,250.30143l16.75,-33.50001l44.66667,0l16.75,33.50001l-16.75,33.5l-44.66667,0l-16.75,-33.5z" stroke-width="0.5" stroke="#007fff" fill="none"/>
  <path id="svg_48" d="m368.7325,183.30143l16.75,-33.50001l44.66667,0l16.75,33.50001l-16.75,33.5l-44.66667,0l-16.75,-33.5z" stroke-width="0.5" stroke="#ffffff" fill="none"/>
  <path id="svg_49" d="m-1.2675,248.30143l16.75,-33.50001l44.66667,0l16.75,33.50001l-16.75,33.5l-44.66667,0l-16.75,-33.5z" stroke-width="0.5" stroke="#007fff" fill="none"/>
  <path id="svg_50" d="m120.7325,249.30143l16.75,-33.50001l44.66667,0l16.75,33.50001l-16.75,33.5l-44.66667,0l-16.75,-33.5z" stroke-width="0.5" stroke="#007fff" fill="none"/>
  <path id="svg_51" d="m182.7325,148.30143l16.75,-33.50001l44.66667,0l16.75,33.50001l-16.75,33.5l-44.66667,0l-16.75,-33.5z" stroke-width="0.5" stroke="#ffffff" fill="none"/>
  <path id="svg_52" d="m305.7325,149.30143l16.75,-33.50001l44.66667,0l16.75,33.50001l-16.75,33.5l-44.66667,0l-16.75,-33.5z" stroke-width="0.5" stroke="#ffffff" fill="none"/>
  <path id="svg_55" d="m-3.2675,316.30143l16.75,-33.50001l44.66667,0l16.75,33.50001l-16.75,33.5l-44.66667,0l-16.75,-33.5z" stroke-width="0.5" stroke="#007fff" fill="none"/>
  <path id="svg_56" d="m58.7325,283.30143l16.75,-33.50001l44.66667,0l16.75,33.50001l-16.75,33.5l-44.66667,0l-16.75,-33.5z" stroke-width="0.5" stroke="#007fff" fill="none"/>
  <path id="svg_57" d="m119.7325,316.30143l16.75,-33.50001l44.66667,0l16.75,33.50001l-16.75,33.5l-44.66667,0l-16.75,-33.5z" stroke-width="0.5" stroke="#007fff" fill="none"/>
  <path id="svg_58" d="m180.7325,350.30143l16.75,-33.50001l44.66667,0l16.75,33.50001l-16.75,33.5l-44.66667,0l-16.75,-33.5z" stroke-width="0.5" stroke="#007fff" fill="none"/>
  <path id="svg_59" d="m181.7325,283.30143l16.75,-33.50001l44.66667,0l16.75,33.50001l-16.75,33.5l-44.66667,0l-16.75,-33.5z" stroke-width="0.5" stroke="#007fff" fill="none"/>
  <path id="svg_60" d="m242.7325,317.30143l16.75,-33.50001l44.66667,0l16.75,33.50001l-16.75,33.5l-44.66667,0l-16.75,-33.5z" stroke-width="0.5" stroke="#007fff" fill="none"/>
  <path id="svg_61" d="m303.7325,351.30143l16.75,-33.50001l44.66667,0l16.75,33.50001l-16.75,33.5l-44.66667,0l-16.75,-33.5z" stroke-width="0.5" stroke="#007fff" fill="none"/>
  <path id="svg_62" d="m304.7325,284.30143l16.75,-33.50001l44.66667,0l16.75,33.50001l-16.75,33.5l-44.66667,0l-16.75,-33.5z" stroke-width="0.5" stroke="#007fff" fill="none"/>
  <path id="svg_64" d="m57.7325,350.30143l16.75,-33.50001l44.66667,0l16.75,33.50001l-16.75,33.5l-44.66667,0l-16.75,-33.5z" stroke-width="0.5" stroke="#007fff" fill="none"/>
  <path id="svg_66" d="m-4.2675,451.30143l16.75,-33.50001l44.66667,0l16.75,33.50001l-16.75,33.5l-44.66667,0l-16.75,-33.5z" stroke-width="0.5" stroke="#007fff" fill="none"/>
  <path id="svg_67" d="m-3.2675,384.30143l16.75,-33.50001l44.66667,0l16.75,33.50001l-16.75,33.5l-44.66667,0l-16.75,-33.5z" stroke-width="0.5" stroke="#007fff" fill="none"/>
  <path id="svg_68" d="m57.7325,418.30143l16.75,-33.50001l44.66667,0l16.75,33.50001l-16.75,33.5l-44.66667,0l-16.75,-33.5z" stroke-width="0.5" stroke="#007fff" fill="none"/>
  <path id="svg_69" d="m118.7325,451.30143l16.75,-33.50001l44.66667,0l16.75,33.50001l-16.75,33.5l-44.66667,0l-16.75,-33.5z" stroke-width="0.5" stroke="#007fff" fill="none"/>
  <path id="svg_70" d="m179.7325,485.30143l16.75,-33.50001l44.66667,0l16.75,33.50001l-16.75,33.5l-44.66667,0l-16.75,-33.5z" stroke-width="0.5" stroke="#007fff" fill="none"/>
  <path id="svg_71" d="m180.7325,418.30143l16.75,-33.50001l44.66667,0l16.75,33.50001l-16.75,33.5l-44.66667,0l-16.75,-33.5z" stroke-width="0.5" stroke="#007fff" fill="none"/>
  <path id="svg_72" d="m241.7325,452.30143l16.75,-33.50001l44.66667,0l16.75,33.50001l-16.75,33.5l-44.66667,0l-16.75,-33.5z" stroke-width="0.5" stroke="#007fff" fill="none"/>
  <path id="svg_73" d="m302.7325,486.30143l16.75,-33.50001l44.66667,0l16.75,33.50001l-16.75,33.5l-44.66667,0l-16.75,-33.5z" stroke-width="0.5" stroke="#007fff" fill="none"/>
  <path id="svg_74" d="m303.7325,419.30143l16.75,-33.50001l44.66667,0l16.75,33.50001l-16.75,33.5l-44.66667,0l-16.75,-33.5z" stroke-width="0.5" stroke="#007fff" fill="none"/>
  <path id="svg_76" d="m56.7325,485.30143l16.75,-33.50001l44.66667,0l16.75,33.50001l-16.75,33.5l-44.66667,0l-16.75,-33.5z" stroke-width="0.5" stroke="#007fff" fill="none"/>
  <path id="svg_77" d="m118.7325,384.30143l16.75,-33.50001l44.66667,0l16.75,33.50001l-16.75,33.5l-44.66667,0l-16.75,-33.5z" stroke-width="0.5" stroke="#007fff" fill="none"/>
  <path id="svg_78" d="m241.7325,385.30143l16.75,-33.50001l44.66667,0l16.75,33.50001l-16.75,33.5l-44.66667,0l-16.75,-33.5z" stroke-width="0.5" stroke="#007fff" fill="none"/>
  <path id="svg_79" d="m-5.2675,519.30143l16.75,-33.50001l44.66667,0l16.75,33.50001l-16.75,33.5l-44.66667,0l-16.75,-33.5z" stroke-width="0.5" stroke="#007fff" fill="none"/>
  <path id="svg_80" d="m55.7325,553.30143l16.75,-33.50001l44.66667,0l16.75,33.50001l-16.75,33.5l-44.66667,0l-16.75,-33.5z" stroke-width="0.5" stroke="#007fff" fill="none"/>
  <path id="svg_81" d="m117.7325,520.30143l16.75,-33.50001l44.66667,0l16.75,33.50001l-16.75,33.5l-44.66667,0l-16.75,-33.5z" stroke-width="0.5" stroke="#007fff" fill="none"/>
  <path id="svg_82" d="m178.7325,553.30143l16.75,-33.50001l44.66667,0l16.75,33.50001l-16.75,33.5l-44.66667,0l-16.75,-33.5z" stroke-width="0.5" stroke="#007fff" fill="none"/>
  <path id="svg_83" d="m239.7325,587.30143l16.75,-33.50001l44.66667,0l16.75,33.50001l-16.75,33.5l-44.66667,0l-16.75,-33.5z" stroke-width="0.5" stroke="#007fff" fill="none"/>
  <path id="svg_84" d="m240.7325,520.30143l16.75,-33.50001l44.66667,0l16.75,33.50001l-16.75,33.5l-44.66667,0l-16.75,-33.5z" stroke-width="0.5" stroke="#007fff" fill="none"/>
  <path id="svg_85" d="m301.7325,554.30143l16.75,-33.50001l44.66667,0l16.75,33.50001l-16.75,33.5l-44.66667,0l-16.75,-33.5z" stroke-width="0.5" stroke="#007fff" fill="none"/>
  <path id="svg_86" d="m362.7325,588.30143l16.75,-33.50001l44.66667,0l16.75,33.50001l-16.75,33.5l-44.66667,0l-16.75,-33.5z" stroke-width="0.5" stroke="#007fff" fill="none"/>
  <path id="svg_87" d="m363.7325,521.30143l16.75,-33.50001l44.66667,0l16.75,33.50001l-16.75,33.5l-44.66667,0l-16.75,-33.5z" stroke-width="0.5" stroke="#007fff" fill="none"/>
  <path id="svg_88" d="m-5.2675,586.30143l16.75,-33.50001l44.66667,0l16.75,33.50001l-16.75,33.5l-44.66667,0l-16.75,-33.5z" stroke-width="0.5" stroke="#007fff" fill="none"/>
  <path id="svg_89" d="m116.7325,587.30143l16.75,-33.50001l44.66667,0l16.75,33.50001l-16.75,33.5l-44.66667,0l-16.75,-33.5z" stroke-width="0.5" stroke="#007fff" fill="none"/>
  <path id="svg_90" d="m-6.2675,654.30143l16.75,-33.50001l44.66667,0l16.75,33.50001l-16.75,33.5l-44.66667,0l-16.75,-33.5z" stroke-width="0.5" stroke="#007fff" fill="none"/>
  <path id="svg_91" d="m54.7325,688.30143l16.75,-33.50001l44.66667,0l16.75,33.50001l-16.75,33.5l-44.66667,0l-16.75,-33.5z" stroke-width="0.5" stroke="#007fff" fill="none"/>
  <path id="svg_92" d="m55.7325,621.30143l16.75,-33.50001l44.66667,0l16.75,33.50001l-16.75,33.5l-44.66667,0l-16.75,-33.5z" stroke-width="0.5" stroke="#007fff" fill="none"/>
  <path id="svg_93" d="m116.7325,655.30143l16.75,-33.50001l44.66667,0l16.75,33.50001l-16.75,33.5l-44.66667,0l-16.75,-33.5z" stroke-width="0.5" stroke="#007fff" fill="none"/>
  <path id="svg_94" d="m177.7325,688.30143l16.75,-33.50001l44.66667,0l16.75,33.50001l-16.75,33.5l-44.66667,0l-16.75,-33.5z" stroke-width="0.5" stroke="#007fff" fill="none"/>
  <path id="svg_95" d="m238.7325,722.30143l16.75,-33.50001l44.66667,0l16.75,33.50001l-16.75,33.5l-44.66667,0l-16.75,-33.5z" stroke-width="0.5" stroke="#007fff" fill="none"/>
  <path id="svg_96" d="m239.7325,655.30143l16.75,-33.50001l44.66667,0l16.75,33.50001l-16.75,33.5l-44.66667,0l-16.75,-33.5z" stroke-width="0.5" stroke="#007fff" fill="none"/>
  <path id="svg_97" d="m300.7325,689.30143l16.75,-33.50001l44.66667,0l16.75,33.50001l-16.75,33.5l-44.66667,0l-16.75,-33.5z" stroke-width="0.5" stroke="#007fff" fill="none"/>
  <path id="svg_98" d="m361.7325,723.30143l16.75,-33.50001l44.66667,0l16.75,33.50001l-16.75,33.5l-44.66667,0l-16.75,-33.5z" stroke-width="0.5" stroke="#007fff" fill="none"/>
  <path id="svg_99" d="m362.7325,656.30143l16.75,-33.50001l44.66667,0l16.75,33.50001l-16.75,33.5l-44.66667,0l-16.75,-33.5z" stroke-width="0.5" stroke="#007fff" fill="none"/>
  <path id="svg_100" d="m-6.2675,721.30143l16.75,-33.50001l44.66667,0l16.75,33.50001l-16.75,33.5l-44.66667,0l-16.75,-33.5z" stroke-width="0.5" stroke="#007fff" fill="none"/>
  <path id="svg_101" d="m115.7325,722.30143l16.75,-33.50001l44.66667,0l16.75,33.50001l-16.75,33.5l-44.66667,0l-16.75,-33.5z" stroke-width="0.5" stroke="#007fff" fill="none"/>
  <path id="svg_102" d="m177.7325,621.30143l16.75,-33.50001l44.66667,0l16.75,33.50001l-16.75,33.5l-44.66667,0l-16.75,-33.5z" stroke-width="0.5" stroke="#007fff" fill="none"/>
  <path id="svg_103" d="m300.7325,622.30143l16.75,-33.50001l44.66667,0l16.75,33.50001l-16.75,33.5l-44.66667,0l-16.75,-33.5z" stroke-width="0.5" stroke="#007fff" fill="none"/>
  <path id="svg_104" d="m364.7325,385.30143l16.75,-33.50001l44.66667,0l16.75,33.50001l-16.75,33.5l-44.66667,0l-16.75,-33.5z" stroke-width="0.5" stroke="#007fff" fill="none"/>
  <path id="svg_105" d="m365.7325,318.30143l16.75,-33.50001l44.66667,0l16.75,33.50001l-16.75,33.5l-44.66667,0l-16.75,-33.5z" stroke-width="0.5" stroke="#007fff" fill="none"/>
  <path id="svg_107" d="m364.7325,453.30143l16.75,-33.50001l44.66667,0l16.75,33.50001l-16.75,33.5l-44.66667,0l-16.75,-33.5z" stroke-width="0.5" stroke="#007fff" fill="none"/>
  <path id="svg_108" d="m53.7325,756.30143l16.75,-33.50001l44.66667,0l16.75,33.50001l-16.75,33.5l-44.66667,0l-16.75,-33.5z" stroke-width="0.5" stroke="#ffffff" fill="none"/>
  <path id="svg_109" d="m176.7325,756.30143l16.75,-33.50001l44.66667,0l16.75,33.50001l-16.75,33.5l-44.66667,0l-16.75,-33.5z" stroke-width="0.5" stroke="#ffffff" fill="none"/>
  <path id="svg_110" d="m237.7325,790.30143l16.75,-33.50001l44.66667,0l16.75,33.50001l-16.75,33.5l-44.66667,0l-16.75,-33.5z" stroke-width="0.5" stroke="#ffffff" fill="none"/>
  <path id="svg_111" d="m299.7325,757.30143l16.75,-33.50001l44.66667,0l16.75,33.50001l-16.75,33.5l-44.66667,0l-16.75,-33.5z" stroke-width="0.5" stroke="#ffffff" fill="none"/>
  <path id="svg_112" d="m360.7325,791.30143l16.75,-33.50001l44.66667,0l16.75,33.50001l-16.75,33.5l-44.66667,0l-16.75,-33.5z" stroke-width="0.5" stroke="#ffffff" fill="none"/>
  <path id="svg_113" d="m-7.2675,789.30143l16.75,-33.50001l44.66667,0l16.75,33.50001l-16.75,33.5l-44.66667,0l-16.75,-33.5z" stroke-width="0.5" stroke="#ffffff" fill="none"/>
  <path id="svg_114" d="m114.7325,790.30143l16.75,-33.50001l44.66667,0l16.75,33.50001l-16.75,33.5l-44.66667,0l-16.75,-33.5z" stroke-width="0.5" stroke="#ffffff" fill="none"/>
  <path id="svg_115" d="m-8.2675,857.30143l16.75,-33.50001l44.66667,0l16.75,33.50001l-16.75,33.5l-44.66667,0l-16.75,-33.5z" stroke-width="0.5" stroke="#ffffff" fill="none"/>
  <path id="svg_116" d="m52.7325,891.30143l16.75,-33.50001l44.66667,0l16.75,33.50001l-16.75,33.5l-44.66667,0l-16.75,-33.5z" stroke-width="0.5" stroke="#ffffff" fill="none"/>
  <path id="svg_117" d="m53.7325,824.30143l16.75,-33.50001l44.66667,0l16.75,33.50001l-16.75,33.5l-44.66667,0l-16.75,-33.5z" stroke-width="0.5" stroke="#ffffff" fill="none"/>
  <path id="svg_118" d="m114.7325,858.30143l16.75,-33.50001l44.66667,0l16.75,33.50001l-16.75,33.5l-44.66667,0l-16.75,-33.5z" stroke-width="0.5" stroke="#ffffff" fill="none"/>
  <path id="svg_119" d="m175.7325,891.30143l16.75,-33.50001l44.66667,0l16.75,33.50001l-16.75,33.5l-44.66667,0l-16.75,-33.5z" stroke-width="0.5" stroke="#ffffff" fill="none"/>
  <path id="svg_120" d="m236.7325,925.30143l16.75,-33.50001l44.66667,0l16.75,33.50001l-16.75,33.5l-44.66667,0l-16.75,-33.5z" stroke-width="0.5" stroke="#ffffff" fill="none"/>
  <path id="svg_121" d="m237.7325,858.30143l16.75,-33.50001l44.66667,0l16.75,33.50001l-16.75,33.5l-44.66667,0l-16.75,-33.5z" stroke-width="0.5" stroke="#ffffff" fill="none"/>
  <path id="svg_122" d="m298.7325,892.30143l16.75,-33.50001l44.66667,0l16.75,33.50001l-16.75,33.5l-44.66667,0l-16.75,-33.5z" stroke-width="0.5" stroke="#ffffff" fill="none"/>
  <path id="svg_123" d="m359.7325,926.30143l16.75,-33.50001l44.66667,0l16.75,33.50001l-16.75,33.5l-44.66667,0l-16.75,-33.5z" stroke-width="0.5" stroke="#ffffff" fill="none"/>
  <path id="svg_124" d="m360.7325,859.30143l16.75,-33.50001l44.66667,0l16.75,33.50001l-16.75,33.5l-44.66667,0l-16.75,-33.5z" stroke-width="0.5" stroke="#ffffff" fill="none"/>
  <path id="svg_125" d="m-8.2675,924.30143l16.75,-33.50001l44.66667,0l16.75,33.50001l-16.75,33.5l-44.66667,0l-16.75,-33.5z" stroke-width="0.5" stroke="#ffffff" fill="none"/>
  <path id="svg_126" d="m113.7325,925.30143l16.75,-33.50001l44.66667,0l16.75,33.50001l-16.75,33.5l-44.66667,0l-16.75,-33.5z" stroke-width="0.5" stroke="#ffffff" fill="none"/>
  <path id="svg_127" d="m175.7325,824.30143l16.75,-33.50001l44.66667,0l16.75,33.50001l-16.75,33.5l-44.66667,0l-16.75,-33.5z" stroke-width="0.5" stroke="#ffffff" fill="none"/>
  <path id="svg_128" d="m298.7325,825.30143l16.75,-33.50001l44.66667,0l16.75,33.50001l-16.75,33.5l-44.66667,0l-16.75,-33.5z" stroke-width="0.5" stroke="#ffffff" fill="none"/>
  <g id="svg_5">
   <g id="svg_53">
    <rect stroke-width="5" stroke="#ffffff" id="svg_1" height="87" width="237" y="302" x="91.5" fill="none"/>
    <rect stroke-width="5" stroke="#ffffff" id="svg_6" height="87" width="237" y="480" x="91.5" fill="none"/>
    <line id="svg_7" y2="479" x2="91.5" y1="387" x1="330.5" stroke-width="5" stroke="#ffffff" fill="none"/>
    <text transform="matrix(1.61553 0 0 1.33596 -70.6327 20.629)" stroke="#ffffff" xml:space="preserve" text-anchor="start" font-family="Noto Sans JP" font-size="20" id="svg_10" y="250.08307" x="113.35197" stroke-width="0" fill="none">INLINE DATA</text>
    <text stroke-width="0" transform="matrix(1.56391 0 0 1.33596 -102.76 89.6288)" stroke="#ffffff" xml:space="preserve" text-anchor="start" font-family="Noto Sans JP" font-size="20" id="svg_11" y="333.91742" x="136.19253" fill="none">MONITORING</text>
    <text xml:space="preserve" text-anchor="start" font-family="Noto Sans JP" font-size="20" id="svg_13" y="613" x="72.5" stroke="#ffffff" fill="none">AUTOMATION ENGINEERING</text>
   </g>
   <text transform="matrix(1.12337 0 0 1.35549 -22.0262 -156.535)" stroke="#000" xml:space="preserve" text-anchor="start" font-family="Noto Sans JP" font-size="24" id="svg_3" y="509" x="129.5" stroke-width="0" fill="#ffffff">MONITORING</text>
   <text transform="matrix(1.35693 0 0 1.35693 -42.6534 -105.48)" stroke="#000" xml:space="preserve" text-anchor="start" font-family="Noto Sans JP" font-size="24" id="svg_4" y="337.63478" x="113.60435" stroke-width="0" fill="#ffffff">INLINE DATA</text>
  </g>
 </g>
</svg>