<?xml version="1.0" standalone="no"?>
<!DOCTYPE svg PUBLIC "-//W3C//DTD SVG 20010904//EN"
 "http://www.w3.org/TR/2001/REC-SVG-20010904/DTD/svg10.dtd">
<svg version="1.0" xmlns="http://www.w3.org/2000/svg"
 width="1080.000000pt" height="1920.000000pt" viewBox="0 0 1080.000000 1920.000000"
 preserveAspectRatio="xMidYMid meet">

<g transform="translate(0.000000,1920.000000) scale(0.100000,-0.100000)"
fill="#000000" stroke="none">
<path d="M0 9600 l0 -9600 5400 0 5400 0 0 9600 0 9600 -5400 0 -5400 0 0
-9600z m9618 5143 l2 -1153 -85 0 c-73 0 -195 -24 -862 -171 -428 -94 -830
-181 -893 -195 -63 -14 -153 -33 -200 -44 -47 -11 -157 -35 -245 -54 -381 -83
-828 -181 -1060 -232 -331 -73 -438 -96 -635 -139 -169 -37 -511 -112 -865
-190 -110 -24 -623 -137 -1140 -250 -1430 -313 -1522 -334 -1630 -359 l-100
-24 3858 -1 3857 -1 0 -1150 0 -1150 -427 0 c-236 -1 -2127 -1 -4203 -1
l-3775 1 -3 1150 -2 1150 105 0 c95 0 142 8 488 84 210 47 580 128 822 181
242 53 521 114 620 136 99 22 241 53 315 69 74 16 216 47 315 69 99 22 457
100 795 174 1883 414 2332 512 2495 548 99 22 241 53 315 69 74 16 218 48 320
70 102 22 246 54 320 70 74 16 218 48 320 70 102 22 259 57 350 76 91 20 167
38 169 40 2 2 -1740 4 -3872 4 l-3877 0 0 1148 c0 632 3 1152 7 1155 3 4 1894
6 4202 5 l4196 -3 3 -1152z m-6411 -5968 c49 -33 71 -152 38 -215 -48 -92
-175 -94 -219 -3 -23 48 -21 140 4 181 36 59 117 76 177 37z m1408 11 c85 -36
102 -203 27 -269 -11 -10 -39 -21 -61 -24 -90 -12 -146 48 -145 155 1 72 20
106 75 134 41 22 59 22 104 4z m1444 -7 c25 -15 31 -23 23 -31 -8 -8 -18 -8
-37 0 -42 19 -74 14 -106 -17 -24 -25 -29 -37 -29 -81 0 -67 21 -107 63 -118
46 -12 76 -4 83 23 10 42 1 60 -34 63 -20 2 -32 9 -32 18 0 10 13 14 50 14
l50 0 0 -64 c0 -80 -12 -91 -92 -91 -55 0 -62 2 -92 36 -73 79 -45 231 47 258
50 14 69 13 106 -10z m2194 -1 c23 -12 16 -34 -9 -30 -80 15 -91 14 -120 -11
-27 -23 -29 -31 -29 -91 0 -57 3 -69 26 -92 19 -18 37 -26 62 -26 49 0 57 7
57 53 0 38 -1 39 -35 39 -24 0 -35 5 -35 15 0 12 13 15 55 15 l55 0 0 -57 c0
-32 -4 -63 -8 -69 -22 -33 -105 -45 -152 -21 -13 7 -35 28 -47 46 -28 42 -31
126 -6 178 29 62 119 87 186 51z m-5967 -133 c27 -79 45 -147 42 -151 -15 -14
-37 7 -49 45 l-12 41 -53 0 c-52 0 -53 0 -64 -37 -15 -47 -24 -57 -44 -50 -13
5 -8 27 30 139 24 73 46 139 49 146 2 6 15 12 29 12 23 0 28 -11 72 -145z
m164 50 c0 -61 5 -108 14 -130 14 -32 19 -35 55 -35 58 0 71 30 71 160 0 93 1
100 20 100 19 0 20 -7 20 -97 0 -161 -24 -203 -115 -203 -83 0 -105 42 -105
195 0 98 1 105 20 105 19 0 20 -7 20 -95z m490 80 c0 -11 -12 -15 -45 -15
l-45 0 0 -136 c0 -124 -2 -135 -17 -132 -16 3 -18 19 -21 136 l-3 132 -44 0
c-33 0 -45 4 -45 15 0 12 19 15 110 15 91 0 110 -3 110 -15z m510 -81 c19 -53
37 -97 40 -99 4 -2 22 40 41 93 32 88 38 97 62 100 l28 3 -3 -148 c-3 -131 -5
-148 -20 -151 -16 -3 -18 8 -18 115 l-1 118 -23 -65 c-39 -109 -55 -142 -68
-138 -6 2 -28 49 -49 104 l-38 99 -1 -116 c0 -96 -3 -116 -15 -116 -13 0 -15
23 -15 149 0 147 0 148 23 148 19 0 27 -13 57 -96z m445 -48 c27 -80 46 -148
43 -152 -15 -14 -37 7 -49 46 l-12 41 -55 -3 -55 -3 -15 -42 c-12 -39 -33 -55
-45 -35 -4 5 45 162 88 280 2 6 15 12 27 12 21 0 28 -15 73 -144z m305 129 c0
-11 -12 -15 -45 -15 l-45 0 0 -130 c0 -109 -3 -132 -15 -137 -9 -3 -18 -3 -22
0 -3 3 -5 57 -4 120 1 62 -1 121 -5 130 -4 12 -18 17 -48 17 -31 0 -43 4 -43
15 0 12 20 15 114 15 94 0 113 -3 113 -15z m130 -135 c0 -143 -1 -150 -20
-150 -19 0 -20 7 -20 150 0 143 1 150 20 150 19 0 20 -7 20 -150z m574 38 l61
-107 3 110 c2 101 4 109 22 109 19 0 20 -7 20 -144 0 -199 -14 -203 -111 -33
l-64 111 -3 -117 c-2 -95 -5 -117 -17 -117 -8 0 -15 3 -16 8 -1 10 -1 275 0
285 1 5 11 7 22 5 16 -2 39 -33 83 -110z m536 97 c0 -12 -14 -15 -65 -15 l-65
0 0 -45 0 -45 56 0 c47 0 55 -3 52 -17 -3 -14 -14 -18 -56 -18 l-52 0 0 -52 0
-53 65 0 c58 0 65 -2 65 -20 0 -18 -7 -20 -85 -20 l-85 0 0 150 0 150 85 0
c69 0 85 -3 85 -15z m214 -97 l61 -107 3 110 c2 101 4 109 22 109 19 0 20 -8
20 -151 0 -148 0 -150 -21 -147 -15 2 -40 35 -88 118 l-66 114 -3 -117 c-2
-91 -6 -117 -16 -117 -17 0 -23 69 -18 207 4 88 5 94 24 91 14 -2 40 -36 82
-110z m586 -39 c0 -138 -1 -150 -17 -147 -16 3 -18 20 -21 151 -2 142 -2 147
18 147 19 0 20 -6 20 -151z m236 36 l64 -110 0 113 c0 105 1 112 20 112 19 0
20 -7 20 -151 0 -148 0 -150 -21 -147 -15 2 -40 35 -88 118 l-66 114 -3 -117
c-2 -95 -5 -117 -17 -117 -13 0 -15 25 -15 151 0 147 0 150 21 147 15 -2 40
-35 85 -113z m404 100 c0 -11 -16 -15 -67 -17 l-68 -3 -3 -42 -3 -43 56 0 c48
0 56 -3 53 -17 -2 -14 -15 -19 -56 -21 l-52 -3 0 -50 0 -49 70 0 c64 0 70 -2
70 -20 0 -19 -5 -20 -87 -18 l-88 3 -3 148 -3 147 91 0 c72 0 90 -3 90 -15z
m280 0 c0 -11 -16 -15 -67 -17 l-68 -3 -3 -42 -3 -43 61 0 c53 0 61 -2 58 -17
-3 -14 -14 -18 -58 -19 l-55 -1 -2 -51 -2 -52 70 0 c62 0 70 -2 67 -17 -3 -16
-15 -18 -88 -18 l-85 0 -3 148 -3 147 91 0 c72 0 90 -3 90 -15z m264 4 c52
-24 55 -108 4 -143 l-23 -17 33 -59 c38 -69 38 -70 12 -70 -14 0 -31 20 -57
65 -28 50 -43 65 -60 65 -20 0 -22 -5 -25 -62 -2 -50 -6 -63 -20 -66 -17 -3
-18 9 -18 147 l0 151 65 0 c35 0 75 -5 89 -11z m184 -136 c-3 -128 -5 -148
-20 -151 -14 -3 -17 11 -20 110 -4 157 -1 188 23 188 19 0 19 -8 17 -147z
m228 34 c33 -59 63 -109 65 -111 2 -3 2 47 1 110 -4 110 -3 114 17 114 20 0
21 -5 21 -150 0 -151 -3 -164 -36 -142 -6 4 -39 55 -73 115 -35 59 -64 107
-64 107 -1 0 -2 -51 -2 -112 0 -99 -2 -113 -17 -116 -17 -3 -18 9 -18 148 0
151 0 151 22 148 17 -2 38 -31 84 -111z m-1991 -3820 c184 -36 249 -55 408
-119 871 -353 1352 -1296 1131 -2218 -81 -342 -265 -662 -521 -911 -124 -121
-190 -173 -329 -260 -316 -199 -704 -302 -1084 -285 -273 11 -497 67 -748 187
-252 120 -465 285 -636 494 -245 299 -378 599 -430 973 -17 123 -21 359 -6
462 29 218 51 308 117 480 239 629 832 1106 1493 1199 41 6 86 13 100 15 59
10 429 -3 505 -17z"/>
<path d="M1346 14793 c0 -533 1 -992 2 -1021 l2 -52 4068 2 4067 3 3 1018 2
1017 -4073 0 -4072 0 1 -967z m494 152 l0 -255 -30 0 -30 0 0 255 0 255 30 0
30 0 0 -255z m649 68 l96 -182 3 184 2 185 35 0 35 0 0 -255 0 -255 -34 0 -34
0 -99 191 -98 191 -3 -191 -2 -191 -35 0 -35 0 0 256 0 255 37 -3 37 -3 95
-182z m721 -38 l0 -224 98 -3 97 -3 3 -27 3 -28 -135 0 -136 0 0 255 0 255 35
0 35 0 0 -225z m710 -30 l0 -255 -30 0 -30 0 0 255 0 255 30 0 30 0 0 -255z
m650 70 c52 -102 98 -185 103 -185 4 0 7 83 7 185 l0 185 30 0 30 0 0 -255 0
-255 -33 0 c-33 0 -34 1 -133 193 l-99 192 -3 -192 -2 -193 -33 0 -32 0 2 248
c0 136 1 250 2 255 1 4 16 7 34 7 32 0 33 -3 127 -185z m928 158 l-3 -28 -102
-3 -103 -3 0 -79 0 -80 90 0 90 0 0 -31 0 -30 -72 1 c-40 1 -81 1 -90 1 -16
-1 -18 -12 -18 -86 l0 -85 105 0 105 0 0 -30 0 -30 -140 0 -140 0 0 255 0 255
141 0 140 0 -3 -27z m1189 16 c82 -31 113 -97 113 -244 0 -197 -53 -255 -231
-255 l-79 0 0 255 0 255 84 0 c47 0 97 -5 113 -11z m827 -202 c38 -116 75
-231 82 -255 l13 -43 -36 3 c-34 3 -36 5 -55 66 l-19 63 -86 -3 -85 -3 -20
-62 c-18 -61 -20 -63 -53 -63 l-34 0 13 43 c7 23 44 138 82 254 l69 213 30 0
30 0 69 -213z m786 183 l0 -30 -65 0 -65 0 0 -225 0 -225 -35 0 -35 0 0 225 0
225 -65 0 -65 0 0 30 0 30 165 0 165 0 0 -30z m674 -182 c38 -117 75 -232 82
-255 l13 -43 -34 0 c-32 0 -34 2 -55 65 l-22 66 -86 -3 -85 -3 -17 -60 c-16
-58 -18 -60 -53 -63 l-36 -3 13 43 c7 24 44 139 82 256 l69 212 30 0 30 0 69
-212z"/>
<path d="M6550 14945 l0 -195 54 0 c59 0 100 24 117 68 5 14 10 71 10 128 0
157 -25 194 -131 194 l-50 0 0 -195z"/>
<path d="M7382 14998 c-18 -58 -32 -109 -32 -112 0 -3 29 -6 65 -6 75 0 73
-15 26 137 l-27 86 -32 -105z"/>
<path d="M8846 15009 c-15 -52 -30 -102 -32 -111 -5 -16 3 -18 60 -18 36 0 66
3 66 8 0 4 -15 54 -33 111 l-33 104 -28 -94z"/>
<path d="M1340 10780 l0 -1020 4070 0 4070 0 2 723 c2 397 2 856 0 1020 l-2
297 -4070 0 -4070 0 0 -1020z m1498 408 c63 -16 132 -85 158 -159 16 -45 19
-82 19 -224 -1 -152 -3 -176 -23 -226 -30 -76 -82 -125 -151 -145 -133 -39
-260 25 -307 155 -22 61 -30 276 -15 366 33 188 152 275 319 233z m3150 0 c61
-15 132 -85 156 -153 24 -65 33 -286 17 -380 -22 -123 -76 -194 -170 -222
-133 -38 -261 27 -307 156 -21 62 -30 277 -15 366 33 188 152 275 319 233z
m3233 -14 c48 -25 88 -73 104 -128 22 -74 21 -76 -34 -76 l-48 0 -7 39 c-4 25
-17 51 -37 70 -28 28 -37 31 -93 31 -71 0 -104 -18 -133 -73 -22 -41 -31 -314
-14 -392 28 -124 141 -177 253 -119 28 14 28 16 28 109 l0 95 -65 0 -65 0 0
40 0 40 115 0 115 0 0 -143 c0 -138 -1 -143 -25 -170 -49 -52 -101 -71 -195
-71 -99 -1 -148 19 -198 80 -53 64 -67 129 -67 304 0 97 5 174 13 207 24 92
81 152 167 174 44 12 150 2 186 -17z m-7642 7 c4 -3 50 -138 102 -298 51 -161
96 -293 99 -293 3 0 23 55 44 123 21 67 63 201 95 297 l57 174 59 -1 60 -1 0
-373 0 -374 -45 0 -45 0 2 280 c1 154 -1 276 -4 270 -2 -5 -46 -131 -96 -280
l-92 -270 -32 -3 c-23 -2 -34 2 -42 15 -5 10 -48 136 -96 278 -48 143 -89 262
-91 264 -2 2 -2 -122 -1 -275 l2 -279 -45 0 -45 0 -3 369 c-2 289 1 371 10
378 14 9 92 8 107 -1z m2869 0 c10 -1 12 -79 10 -373 l-3 -373 -47 -3 -48 -3
0 379 0 379 38 -3 c20 -1 43 -3 50 -3z m860 -39 l3 -42 -95 0 -96 0 -2 -332
-3 -333 -45 0 -45 0 -3 333 -2 332 -95 0 c-84 0 -95 2 -96 18 0 9 -2 26 -4 37
-2 11 0 22 5 25 4 3 113 5 242 4 l233 -1 3 -41z m1594 22 c54 -27 88 -65 103
-118 30 -101 9 -193 -59 -253 l-44 -39 35 -74 c51 -110 103 -230 103 -241 0
-14 -86 -11 -97 4 -5 6 -22 41 -38 77 -15 36 -43 100 -63 143 l-35 77 -63 0
-63 0 -3 -152 -3 -153 -45 0 -45 0 -3 369 c-1 216 2 372 7 375 5 3 70 5 145 4
103 -2 143 -6 168 -19z m579 16 l29 0 0 -375 0 -375 -45 0 -45 0 0 381 c0 343
2 381 16 375 9 -3 29 -6 45 -6z m549 1 c9 -1 73 -114 160 -280 l145 -279 3
278 2 278 38 4 c20 3 43 3 50 0 10 -3 12 -84 10 -376 l-3 -371 -44 0 c-53 0
-43 -16 -215 320 -65 127 -122 234 -127 240 -5 5 -9 -113 -9 -278 l0 -287 -45
0 -45 0 0 374 c0 395 -1 386 45 381 11 -1 27 -3 35 -4z m-4356 -278 c78 -149
145 -275 149 -279 4 -4 7 119 7 274 l0 282 45 0 45 0 0 -67 c1 -148 1 -425 1
-551 l-1 -133 -46 3 c-52 3 -27 -35 -224 343 l-119 230 -3 -285 -3 -285 -45 0
-45 0 -3 373 -2 373 51 -3 52 -3 141 -272z"/>
<path d="M2704 11101 c-31 -14 -72 -67 -84 -109 -5 -20 -10 -107 -10 -192 0
-174 11 -214 69 -263 43 -36 122 -38 171 -4 55 38 69 88 69 265 1 181 -8 228
-55 273 -28 27 -42 33 -86 36 -29 1 -62 -1 -74 -6z"/>
<path d="M5855 11100 c-32 -13 -63 -52 -80 -99 -18 -52 -21 -314 -4 -376 6
-22 28 -56 50 -78 39 -39 39 -39 106 -35 60 4 69 7 93 36 15 18 32 50 39 71
14 49 15 318 0 375 -12 47 -48 92 -86 107 -29 11 -90 11 -118 -1z"/>
<path d="M6680 10959 l0 -141 85 3 c80 4 86 6 117 36 27 27 32 41 36 91 8 111
-36 152 -163 152 l-75 0 0 -141z"/>
<path d="M3084 8737 c-35 -30 -45 -116 -20 -164 28 -55 88 -60 131 -13 16 17
20 36 20 87 0 59 -3 67 -28 89 -35 30 -68 31 -103 1z"/>
<path d="M4505 8728 c-24 -29 -27 -38 -23 -94 5 -78 25 -104 79 -104 29 0 42
6 58 26 84 107 -27 275 -114 172z"/>
<path d="M2192 8680 l-21 -60 40 0 c21 0 39 3 39 6 0 11 -31 114 -35 114 -2 0
-12 -27 -23 -60z"/>
<path d="M3812 8720 c-11 -28 -24 -86 -23 -97 1 -6 61 -5 68 1 1 1 -6 29 -17
61 -17 56 -19 58 -28 35z"/>
<path d="M7310 8705 c0 -54 0 -55 30 -55 53 0 80 19 80 57 0 37 -24 53 -81 53
-29 0 -29 -1 -29 -55z"/>
<path d="M4523 3922 c-21 -2 -41 -14 -58 -33 l-25 -31 0 -723 0 -723 29 -31
29 -31 421 0 421 0 0 -64 0 -63 -117 -7 c-121 -8 -187 -18 -235 -37 -25 -10
-28 -16 -28 -59 0 -46 2 -49 33 -59 153 -48 696 -60 972 -21 111 16 129 26
133 73 2 21 -2 45 -8 52 -17 21 -131 43 -257 51 l-113 7 0 63 0 64 419 0 419
0 31 31 31 31 0 722 0 722 -28 32 -29 32 -1004 2 c-552 2 -1018 2 -1036 0z
m1968 -702 c1 -319 2 -587 2 -595 0 -8 -1 -20 -2 -25 -1 -7 -324 -9 -962 -8
l-962 3 2 595 c1 327 1 598 1 603 0 4 432 7 960 7 l960 0 1 -580z m-1856 -769
c10 -31 -5 -52 -34 -49 -26 3 -38 26 -27 54 8 21 53 18 61 -5z m120 -16 c0
-25 -4 -31 -27 -33 -22 -3 -29 2 -34 22 -8 34 3 48 34 44 23 -2 27 -8 27 -33z
m109 29 c20 -8 21 -38 1 -54 -21 -17 -45 -5 -45 23 0 35 12 43 44 31z"/>
<path d="M5649 3623 c0 -4 -2 -17 -4 -28 -7 -39 -8 -50 -7 -78 1 -16 6 -25 12
-22 6 3 10 -1 10 -11 0 -26 -30 3 -31 30 0 11 -11 -10 -24 -49 -27 -79 -29
-89 -15 -80 6 3 7 -1 4 -9 -3 -9 -9 -14 -13 -11 -4 2 -18 -28 -31 -68 -12 -40
-25 -78 -28 -86 -4 -10 -1 -12 9 -6 8 5 6 -1 -5 -13 -10 -12 -16 -28 -12 -37
3 -9 2 -13 -3 -10 -13 7 -43 -101 -36 -126 4 -12 1 -21 -9 -25 -8 -3 -20 -22
-27 -41 -13 -42 -20 -36 -42 37 -37 122 -35 118 -43 92 -5 -18 -9 -20 -15 -10
-11 17 -11 31 0 24 5 -3 12 1 15 10 9 22 8 26 -5 18 -8 -5 -10 0 -6 17 3 13
-2 49 -12 79 -16 46 -19 51 -23 30 -5 -21 -5 -20 -7 8 0 20 3 31 9 27 15 -9
12 2 -6 20 -9 8 -16 31 -16 50 0 19 -5 35 -10 35 -6 0 -7 7 -4 16 3 8 2 12 -4
9 -6 -3 -10 2 -10 12 0 15 -2 16 -10 3 -8 -12 -10 -12 -10 5 0 11 -20 -12 -52
-59 -47 -72 -50 -80 -34 -92 11 -8 13 -14 7 -19 -6 -3 -11 -1 -11 4 0 6 -7 11
-16 11 -8 0 -13 -4 -10 -9 3 -5 -1 -11 -9 -15 -8 -3 -15 -10 -15 -16 0 -6 6
-8 13 -4 7 4 9 3 4 -2 -5 -5 -12 -9 -17 -9 -10 0 -70 -87 -65 -95 5 -7 -116
-3 -142 5 -13 4 -23 12 -23 17 0 5 -12 8 -27 6 -17 -2 -27 -8 -25 -17 1 -7 -2
-19 -8 -25 -12 -15 -3 -26 22 -26 10 0 18 -4 18 -10 0 -5 -8 -7 -17 -3 -14 5
-15 3 -6 -7 9 -10 18 -9 44 4 18 9 45 16 61 16 16 0 27 4 24 8 -3 5 18 5 46 2
l50 -7 33 46 c23 31 30 48 22 53 -6 4 -16 4 -22 1 -5 -4 -7 -2 -2 2 4 5 17 10
29 12 22 3 37 20 60 63 7 14 19 30 27 36 10 8 11 16 4 29 -10 17 -11 17 -17
-3 -4 -12 -11 -22 -16 -22 -11 0 27 67 44 76 7 4 6 2 -1 -7 -17 -17 -17 -37
-1 -21 20 20 25 14 43 -53 11 -38 22 -62 28 -58 6 4 8 -2 5 -15 -4 -12 -2 -20
2 -17 4 3 15 -16 24 -42 20 -57 20 -65 0 -33 -17 29 -17 29 16 -95 12 -44 24
-87 27 -95 3 -8 6 -18 5 -22 -1 -4 5 -5 13 -2 11 5 15 -1 15 -20 0 -14 5 -25
11 -24 6 2 14 -4 16 -12 4 -13 3 -13 -6 0 -10 13 -11 13 -12 0 0 -8 -7 -1 -14
15 -18 39 -19 7 -1 -36 12 -28 15 -30 20 -13 3 10 3 3 0 -17 -5 -42 14 -97 28
-77 12 19 9 35 -3 18 -8 -11 -9 -8 -4 13 4 22 3 27 -7 21 -9 -5 -8 -2 2 12 22
29 24 30 17 12 -3 -9 -3 -19 0 -22 10 -10 63 167 57 190 -3 12 -1 25 5 28 7 5
8 1 4 -11 -8 -23 1 -15 17 16 8 15 8 21 1 17 -7 -5 -11 2 -11 16 0 15 3 19 8
10 5 -8 18 21 35 78 15 50 25 95 22 100 -4 6 -2 10 4 10 13 0 34 67 27 86 -4
9 -2 12 5 8 8 -4 9 1 4 16 -5 15 -4 20 4 16 12 -8 26 37 18 58 -4 10 2 12 24
10 31 -4 37 4 17 24 -6 6 -9 14 -6 18 10 10 28 -33 22 -51 -5 -11 -10 -13 -19
-5 -11 9 -11 3 -2 -31 8 -35 12 -39 18 -23 5 13 8 15 8 4 1 -9 -4 -21 -9 -26
-7 -7 -8 -19 -1 -38 6 -14 12 -40 13 -56 1 -16 6 -26 11 -23 5 3 8 -8 6 -23
-1 -16 -1 -42 0 -59 l3 -30 12 33 c6 18 15 30 20 25 5 -4 6 5 2 21 -4 15 -10
41 -13 57 -3 16 -9 27 -12 24 -4 -2 -7 16 -6 40 1 25 -3 56 -10 69 -7 13 -13
35 -12 48 1 22 -3 45 -21 142 -4 22 -13 41 -20 44 -6 2 -12 0 -13 -5z m-22
-225 c-3 -8 -6 -5 -6 6 -1 11 2 17 5 13 3 -3 4 -12 1 -19z m-359 -34 c-4 -3
-2 -19 2 -35 5 -16 5 -27 1 -24 -18 10 -20 65 -3 65 3 0 3 -3 0 -6z m308 -51
c-18 -33 -21 -26 -6 13 6 15 13 24 16 21 3 -3 -1 -18 -10 -34z m138 12 c3 -8
1 -15 -4 -15 -6 0 -10 7 -10 15 0 8 2 15 4 15 2 0 6 -7 10 -15z m-124 -40 c0
-8 -4 -15 -10 -15 -5 0 -7 7 -4 15 4 8 8 15 10 15 2 0 4 -7 4 -15z m-34 -32
c-4 -9 -1 -20 6 -24 7 -4 10 -10 7 -13 -2 -3 -11 -1 -18 3 -12 8 -7 51 6 51 3
0 2 -8 -1 -17z m-414 -15 c-7 -7 -12 -8 -12 -2 0 14 12 26 19 19 2 -3 -1 -11
-7 -17z m600 -13 c3 -13 1 -22 -3 -19 -9 5 -13 44 -5 44 2 0 6 -11 8 -25z
m-412 -40 c0 -5 -5 -3 -10 5 -5 8 -10 20 -10 25 0 6 5 3 10 -5 5 -8 10 -19 10
-25z m-245 -14 c3 -5 1 -12 -5 -16 -5 -3 -10 1 -10 9 0 18 6 21 15 7z m-215
-45 c0 -2 -7 -7 -16 -10 -8 -3 -12 -2 -9 4 6 10 25 14 25 6z m25 -5 c3 -5 2
-12 -3 -15 -5 -3 -9 1 -9 9 0 17 3 19 12 6z m600 -62 c-8 -19 -13 -25 -9 -14
3 11 9 36 12 55 5 25 7 29 10 14 2 -12 -4 -37 -13 -55z m-135 -14 c-7 -9 -15
-13 -19 -10 -3 3 1 10 9 15 21 14 24 12 10 -5z m17 -47 c-3 -8 -6 -5 -6 6 -1
11 2 17 5 13 3 -3 4 -12 1 -19z m-10 -40 c-3 -8 -6 -5 -6 6 -1 11 2 17 5 13 3
-3 4 -12 1 -19z m27 6 c3 -8 2 -12 -4 -9 -6 3 -10 10 -10 16 0 14 7 11 14 -7z
m57 -31 c-12 -20 -14 -14 -5 12 4 9 9 14 11 11 3 -2 0 -13 -6 -23z m21 -5 c-8
-8 -9 -4 -5 13 4 13 8 18 11 10 2 -7 -1 -18 -6 -23z"/>
<path d="M5217 3353 c-4 -3 -7 -11 -7 -17 0 -6 5 -5 12 2 6 6 9 14 7 17 -3 3
-9 2 -12 -2z"/>
<path d="M5746 3158 c-14 -46 -15 -77 -5 -127 7 -31 16 -61 21 -67 5 -6 5 -19
2 -28 -4 -11 1 -23 12 -32 11 -9 14 -13 7 -10 -6 4 -14 2 -18 -4 -3 -5 1 -10
10 -10 9 0 13 -5 10 -10 -4 -6 -3 -25 0 -42 l7 -31 14 32 c8 19 14 41 14 51 0
10 7 23 15 30 9 7 14 19 11 27 -3 8 -2 12 2 9 5 -3 9 9 10 27 2 59 6 77 15 68
5 -5 4 -18 -3 -30 -6 -12 -9 -27 -7 -34 2 -7 12 14 22 45 12 36 25 60 37 64
10 3 18 8 18 12 0 4 52 5 115 2 99 -4 116 -8 129 -25 14 -19 17 -19 43 -5 20
11 28 23 27 40 -2 39 -3 42 -14 35 -5 -3 -10 -1 -10 4 0 17 -36 13 -50 -5 -11
-12 -35 -15 -142 -12 l-129 3 6 -23 c5 -20 4 -22 -9 -10 -7 7 -11 17 -8 22 3
5 0 6 -7 2 -7 -5 -10 -14 -7 -22 3 -8 1 -14 -3 -14 -10 0 -21 -23 -27 -59 -3
-13 -11 -30 -19 -38 -8 -8 -15 -19 -15 -24 0 -21 -20 -7 -26 19 -4 15 -12 33
-18 41 -8 12 -8 13 2 7 10 -6 11 -1 6 21 -4 15 -11 30 -16 31 -4 2 -6 8 -2 13
3 5 0 9 -6 9 -8 0 -9 10 -5 30 6 29 -2 43 -9 18z m501 -45 c0 -9 -4 -10 -14
-2 -7 6 -13 12 -13 14 0 1 6 2 13 2 8 0 14 -6 14 -14z m-488 -68 c0 -5 -4 -3
-9 5 -5 8 -9 22 -9 30 0 16 17 -16 18 -35z m127 8 c-10 -10 -19 5 -10 18 6 11
8 11 12 0 2 -7 1 -15 -2 -18z m-98 -88 c-3 -3 -9 2 -12 12 -6 14 -5 15 5 6 7
-7 10 -15 7 -18z m13 -122 c-8 -15 -10 -15 -11 -2 0 17 10 32 18 25 2 -3 -1
-13 -7 -23z"/>
</g>
</svg>
